# xmcd
# 
# Track frame offsets:
#     150
#     35675
#     61704
#     90928
#     126740
#     151004
#     185100
#     209290
#     234500
#     261878
#     300663
# 
# Disc length: 4553
# 
# Revision: 0
# Processed by: cddbd v1.5.2PL0 Copyright (c) Steve Scherf et al.
# Submitted via: fre:ac v1.0.27
# 
DISCID=9111c70b
DTITLE=JOHN COLTRANE - PLAYS THE BLUES
DYEAR=1960
DGENRE=Blues
TTITLE0=Blues To Elvin
TTITLE1=Blues To Bechet
TTITLE2=Blues To You
TTITLE3=Mr. Day
TTITLE4=Mr. Syms
TTITLE5=Mr. Knight
TTITLE6=Village Blues
TTITLE7=Some Other Blues
TTITLE8=Trane`S Slow Blues
TTITLE9=Equinox
TTITLE10=Blues Legacy
EXTD=
EXTT0=
EXTT1=
EXTT2=
EXTT3=
EXTT4=
EXTT5=
EXTT6=
EXTT7=
EXTT8=
EXTT9=
EXTT10=
PLAYORDER=
